<svg width="212" height="80" viewBox="0 0 212 80" fill="none" xmlns="http://www.w3.org/2000/svg">
<g clip-path="url(#clip0_40_3725)">
<path d="M72.0943 18.4602V19.366H70.9998L70.9455 27.654H72.0943V28.5598H68.6119V27.654H69.7063L69.7606 19.366H68.6119V18.4602H72.0943Z" fill="black"/>
<path d="M77.9193 18.4511L83.3464 25.8152C83.4188 25.9239 83.5002 26.0326 83.5725 26.1503C83.6449 26.2681 83.7444 26.413 83.8529 26.5942L83.9072 19.3478H82.7223V18.442H86.1233V19.3478H85.0378L84.9836 28.6051H83.9615L78.263 21.0235C78.1793 20.9209 78.1037 20.8119 78.0369 20.6975C77.9645 20.5797 77.9103 20.471 77.865 20.3804L77.7474 27.6993H79.0138V28.6051H75.6671V27.6993H76.8429L76.8972 19.4112H75.5585V18.5054L77.9193 18.4511Z" fill="black"/>
<path d="M93.1966 18.279C93.4137 18.279 93.6488 18.279 93.9021 18.279L94.6528 18.3786C94.9061 18.4239 95.1412 18.4783 95.3674 18.5326C95.5596 18.5793 95.7472 18.6429 95.9282 18.7228V20.7609H94.7975V19.5471C94.693 19.4998 94.5839 19.4634 94.4719 19.4384L94.0016 19.3478L93.5131 19.2935C93.3806 19.2856 93.2477 19.2856 93.1151 19.2935C92.5193 19.2618 91.9292 19.4239 91.4328 19.7554C91.2316 19.9002 91.0693 20.0926 90.9604 20.3155C90.8515 20.5383 90.7994 20.7847 90.8086 21.0326C90.8046 21.2371 90.8415 21.4404 90.9172 21.6304C91.0033 21.8216 91.1412 21.9847 91.3152 22.1014C91.5585 22.2736 91.823 22.4137 92.1021 22.5181C92.5217 22.6722 92.9507 22.7993 93.3865 22.8985C93.9759 23.0194 94.5434 23.2302 95.0689 23.5235C95.4165 23.7204 95.7234 23.9817 95.9734 24.2935C96.1468 24.5219 96.2617 24.7893 96.3081 25.0725C96.3487 25.2936 96.3699 25.5179 96.3714 25.7427C96.379 26.1865 96.2861 26.6262 96.1 27.029C95.911 27.385 95.6453 27.6944 95.3222 27.9348C94.9598 28.2074 94.5483 28.4073 94.1101 28.5235C93.5882 28.6633 93.0494 28.7304 92.5091 28.7228C92.128 28.7242 91.7473 28.7 91.3694 28.6504C91.0348 28.6051 90.7453 28.5507 90.4649 28.4964L89.8499 28.3243L89.47 28.2156V25.9964H90.6458V27.3641C90.9264 27.517 91.2333 27.6153 91.5503 27.654C91.9059 27.7148 92.266 27.7451 92.6267 27.7446C93.2507 27.7783 93.8681 27.603 94.3815 27.2464C94.5887 27.0838 94.7543 26.8741 94.8644 26.6347C94.9746 26.3952 95.0261 26.1329 95.0147 25.8696C95.0201 25.6796 94.9877 25.4905 94.9194 25.3132C94.851 25.1359 94.7481 24.974 94.6167 24.8369C94.2428 24.5047 93.7919 24.2712 93.3051 24.1576L91.9302 23.759C91.5263 23.6462 91.1352 23.4913 90.7634 23.2971C90.4779 23.1504 90.2206 22.9541 90.0036 22.7174C89.8231 22.5123 89.6875 22.2716 89.6056 22.0109C89.5161 21.7175 89.4733 21.4118 89.479 21.1051C89.4604 20.7116 89.5323 20.3192 89.6891 19.958C89.846 19.5968 90.0835 19.2765 90.3835 19.0217C91.1876 18.4469 92.1656 18.1685 93.1514 18.2337" fill="black"/>
<path d="M108.456 18.4602L108.546 20.924H107.479L107.388 19.366H104.639L104.575 27.654H105.833V28.5598H102.242V27.654H103.336L103.4 19.366H100.641L100.559 20.924H99.492L99.5734 18.4602H108.456Z" fill="black"/>
<path d="M115.339 18.4602V19.366H114.245L114.19 27.654H115.339V28.5598H111.857V27.654H112.951L113.005 19.366H111.857V18.4602H115.339Z" fill="black"/>
<path d="M127.622 18.4602L127.713 20.924H126.646L126.555 19.366H123.805L123.751 27.654H124.999V28.5598H121.417V27.654H122.512L122.566 19.366H119.807L119.726 20.924H118.659L118.749 18.4602H127.622Z" fill="black"/>
<path d="M135.926 28.7319C134.883 28.818 133.845 28.5219 133.004 27.8986C132.665 27.5386 132.409 27.109 132.253 26.6398C132.097 26.1705 132.044 25.6728 132.1 25.1812V19.3932H130.933V18.4874H134.424V19.3932H133.339C133.339 19.5834 133.339 19.8551 133.339 20.2175C133.339 20.5798 133.339 21.0146 133.339 21.558V24.3569C133.334 24.8499 133.356 25.3427 133.402 25.8334C133.432 26.2103 133.547 26.5756 133.737 26.9022C133.927 27.2016 134.21 27.4305 134.542 27.5544C135.014 27.7253 135.515 27.8023 136.016 27.7808C136.448 27.7923 136.878 27.7342 137.292 27.6087C137.607 27.5175 137.891 27.3422 138.115 27.1015C138.337 26.8398 138.495 26.5296 138.576 26.1957C138.677 25.7838 138.726 25.3608 138.721 24.9366V19.366H137.445V18.4602H140.937V19.366H139.824V25.0635C139.834 25.5887 139.758 26.1119 139.598 26.6124C139.462 27.0444 139.227 27.4384 138.911 27.7627C138.577 28.0974 138.167 28.346 137.717 28.4874C137.131 28.6668 136.52 28.7494 135.908 28.7319" fill="black"/>
<path d="M153.13 18.4602L153.211 20.924H152.144L152.062 19.366H149.304L149.249 27.654H150.498V28.5598H146.916V27.654H148.01L148.064 19.366H145.315L145.224 20.924H144.157L144.247 18.4602H153.13Z" fill="black"/>
<path d="M163.314 18.4601V20.797H162.256V19.3659H158.891L158.864 22.9166H162.039V23.8224H158.864L158.837 27.6539H162.338L162.428 26.0778H163.486L163.405 28.5597H156.503V27.6539H157.598L157.652 19.3659H156.503V18.4601H163.314Z" fill="black"/>
<path d="M179.84 18.4602L179.885 20.8334H178.818L178.773 19.366H175.498L175.471 23.0798H178.945V23.9856H175.471L175.444 27.654H176.729V28.5598H173.11V27.654H174.205L174.259 19.366H173.11V18.4602H179.84Z" fill="black"/>
<path d="M187.927 18.2789C188.608 18.2694 189.284 18.3956 189.916 18.6503C190.485 18.8826 190.997 19.2348 191.418 19.6829C191.825 20.147 192.133 20.6895 192.322 21.2771C192.547 21.9391 192.657 22.6344 192.648 23.3333C192.657 24.0826 192.547 24.8286 192.322 25.5434C192.136 26.1652 191.829 26.7439 191.418 27.2463C191.003 27.7163 190.49 28.0903 189.916 28.3424C189.288 28.612 188.61 28.7447 187.927 28.7318C187.239 28.7424 186.557 28.6161 185.918 28.3605C185.356 28.118 184.851 27.76 184.435 27.3097C184.026 26.8469 183.718 26.304 183.531 25.7155C183.307 25.0597 183.197 24.3705 183.205 23.6775C183.197 22.9282 183.307 22.1823 183.531 21.4673C183.717 20.8456 184.024 20.2669 184.435 19.7645C184.85 19.2945 185.363 18.9205 185.937 18.6684C186.566 18.4032 187.244 18.2706 187.927 18.2789ZM184.498 23.5054C184.49 24.09 184.566 24.6727 184.725 25.2355C184.861 25.7209 185.088 26.1758 185.394 26.576C185.668 26.9626 186.035 27.2741 186.461 27.4818C186.919 27.698 187.42 27.8065 187.927 27.7989C188.429 27.8102 188.928 27.7048 189.383 27.4909C189.803 27.2915 190.172 26.9969 190.459 26.6304C190.767 26.2314 190.995 25.776 191.128 25.2898C191.286 24.7238 191.362 24.1382 191.355 23.5507C191.363 22.9661 191.287 22.3834 191.128 21.8206C190.991 21.3359 190.764 20.8813 190.459 20.48C190.163 20.1184 189.793 19.8249 189.374 19.6195C188.917 19.42 188.425 19.317 187.927 19.317C187.428 19.317 186.936 19.42 186.479 19.6195C186.06 19.8214 185.692 20.1156 185.403 20.48C185.092 20.8752 184.862 21.3276 184.725 21.8116C184.566 22.3805 184.49 22.9692 184.498 23.5597" fill="black"/>
<path d="M199.396 18.4511C200.369 18.369 201.343 18.5939 202.181 19.0942C202.465 19.3307 202.689 19.6316 202.834 19.9718C202.978 20.312 203.04 20.6819 203.014 21.0508C203.018 21.3958 202.963 21.7389 202.851 22.0653C202.744 22.3655 202.584 22.6445 202.381 22.8895C202.173 23.131 201.921 23.3308 201.639 23.4783C201.337 23.6358 201.009 23.737 200.671 23.7772C200.902 23.7989 201.118 23.8979 201.286 24.058C201.546 24.3288 201.768 24.6335 201.946 24.9638C202.266 25.4711 202.519 25.8968 202.706 26.241C202.896 26.5852 203.05 26.8569 203.186 27.0743C203.285 27.2439 203.413 27.3942 203.565 27.5182C203.685 27.6095 203.831 27.6574 203.982 27.654H204.56V28.5598H203.963C203.703 28.5638 203.443 28.5456 203.186 28.5055C203.004 28.4712 202.832 28.4003 202.679 28.2971C202.531 28.1974 202.402 28.0716 202.299 27.9258C202.191 27.7718 202.073 27.5816 201.937 27.3461L201.141 25.9874C200.888 25.5526 200.68 25.2084 200.517 24.9548C200.404 24.7786 200.277 24.612 200.137 24.4566C199.996 24.3182 199.826 24.213 199.64 24.1486C199.417 24.099 199.189 24.0777 198.961 24.0852H198.301V27.654H199.468V28.5598H195.967V27.654H197.062L197.116 19.366H195.967V18.4602L199.396 18.4511ZM199.558 23.1703C200.151 23.2075 200.735 23.0199 201.196 22.645C201.394 22.4562 201.549 22.2262 201.649 21.9711C201.749 21.716 201.792 21.442 201.774 21.1685C201.798 20.91 201.758 20.6496 201.659 20.4098C201.56 20.17 201.404 19.9579 201.205 19.7917C200.686 19.4675 200.077 19.3183 199.468 19.366H198.328V23.1703H199.558Z" fill="black"/>
<path d="M77.4671 54.52C71.9224 54.52 67.7706 50.6432 67.7706 44.991C67.7706 39.3388 72.049 35.5164 77.5394 35.5164C80.063 35.5164 82.7765 36.4222 84.278 38.1613L81.3655 41.1232C80.9285 40.589 80.3754 40.1619 79.7483 39.8746C79.1212 39.5873 78.4368 39.4474 77.7475 39.4656C74.7173 39.4656 72.5555 41.8116 72.5555 44.991C72.5555 48.1703 74.6721 50.5164 77.6751 50.5164C78.4082 50.5414 79.1367 50.39 79.7993 50.0747C80.4619 49.7595 81.0393 49.2897 81.4831 48.7048L84.5132 51.558C83.6373 52.5378 82.5569 53.3126 81.3486 53.8276C80.1403 54.3426 78.8337 54.5852 77.5213 54.5381" fill="black"/>
<path d="M91.0259 36.0054H86.6481V54.0398H91.0259V36.0054Z" fill="black"/>
<path d="M102.667 39.7193V54.0399H98.3162V39.7193H93.2328V36.0055H107.759V39.7193H102.667Z" fill="black"/>
<path d="M114.389 36.0055H110.011V54.0399H114.389V36.0055Z" fill="black"/>
<path d="M117.655 54.0399V50.2627L126.22 39.6921H117.854V36.0055H131.666V39.4928L122.892 50.2627H131.846V54.0399H117.655Z" fill="black"/>
<path d="M135.057 54.0399V36.0055H147.16V39.6921H139.254V43.0798H146.726V46.5761H139.254V50.3171H147.621V54.0399H135.057Z" fill="black"/>
<path d="M162.482 54.0399L155.228 42.2374H155.156L155.255 54.0399H151.031V36.0055H155.997L163.215 47.7718H163.296L163.197 36.0055H167.412V54.0399H162.482Z" fill="black"/>
<path d="M181.007 40.6884C180.612 40.2186 180.123 39.8371 179.571 39.5687C179.02 39.3003 178.418 39.151 177.805 39.1304C176.683 39.1304 175.281 39.5199 175.281 40.942C175.281 42.1376 176.349 42.5181 178.058 43.0525C180.5 43.8496 183.648 44.8641 183.648 48.4873C183.648 52.6449 180.319 54.5018 176.756 54.5018C174.255 54.5585 171.833 53.6242 170.017 51.9021L172.866 49.0036C173.345 49.5768 173.939 50.043 174.609 50.3722C175.279 50.7014 176.01 50.8863 176.756 50.9148C178.076 50.9148 179.252 50.3985 179.252 48.9492C179.252 47.5 177.877 47.1376 175.507 46.3768C173.138 45.6159 170.903 44.4655 170.903 41.2047C170.903 37.2101 174.521 35.5525 177.877 35.5525C180.044 35.5581 182.137 36.3424 183.775 37.7626L181.007 40.6884Z" fill="black"/>
<path d="M199.242 39.7917C199.23 40.6002 198.974 41.3862 198.509 42.0471C197.813 42.9742 196.928 43.743 195.913 44.3026L199.902 48.4783C200.213 48.0416 200.445 47.5543 200.59 47.0381C200.775 46.477 200.87 45.8899 200.87 45.2989H199.296V42.8533H204.995V45.2989H203.62C203.587 46.2459 203.404 47.1815 203.077 48.0707C202.758 48.8964 202.315 49.669 201.765 50.3624C202.036 50.6896 202.368 50.9604 202.742 51.1594C203.143 51.3517 203.583 51.4479 204.027 51.4403C204.33 51.4398 204.633 51.4125 204.931 51.3587V53.9674H204.244H203.556C203.141 53.9887 202.724 53.9887 202.308 53.9674C201.999 53.9398 201.694 53.8697 201.404 53.7591C201.128 53.6549 200.869 53.5115 200.635 53.3334C200.357 53.102 200.103 52.8442 199.875 52.5634C199.184 53.1898 198.379 53.6786 197.505 54.0036C196.537 54.3232 195.521 54.4734 194.502 54.4475C193.625 54.4581 192.752 54.3297 191.915 54.0671C191.185 53.8412 190.506 53.4751 189.916 52.9892C189.373 52.5297 188.934 51.9581 188.632 51.3134C188.319 50.6449 188.161 49.9141 188.171 49.1758C188.129 48.0945 188.476 47.0342 189.148 46.1866C189.869 45.3392 190.736 44.6275 191.707 44.0852C191.336 43.6776 191.011 43.2971 190.739 42.962C190.494 42.6569 190.273 42.3328 190.079 41.9928C189.743 41.4024 189.568 40.7339 189.573 40.0544C189.568 39.4894 189.695 38.931 189.943 38.4239C190.194 37.9102 190.552 37.4561 190.993 37.0924C191.475 36.6923 192.027 36.3852 192.621 36.1866C193.296 35.9702 194.001 35.8632 194.71 35.8696C195.937 35.7834 197.149 36.1762 198.093 36.9656C198.475 37.3222 198.777 37.7563 198.978 38.239C199.179 38.7217 199.275 39.2417 199.26 39.7645L199.242 39.7917ZM195.217 51.6848C195.68 51.6873 196.141 51.617 196.583 51.4765C197.104 51.2833 197.583 50.9912 197.994 50.616L193.471 45.9602C192.893 46.2665 192.392 46.7001 192.006 47.2283C191.669 47.6954 191.486 48.2556 191.481 48.8316C191.48 49.2115 191.567 49.5866 191.734 49.9276C191.912 50.2778 192.162 50.5865 192.467 50.8334C192.809 51.1142 193.202 51.3264 193.625 51.4584C194.125 51.6173 194.647 51.6938 195.171 51.6848H195.217ZM194.131 42.4185C194.752 42.1762 195.309 41.7952 195.759 41.3044C196.112 40.9283 196.312 40.4342 196.32 39.9185C196.342 39.682 196.302 39.4438 196.204 39.2276C196.106 39.0115 195.952 38.825 195.759 38.6866C195.372 38.4356 194.918 38.3063 194.457 38.3153C193.961 38.2922 193.475 38.4609 193.1 38.7863C192.927 38.9457 192.791 39.1408 192.7 39.3582C192.61 39.5755 192.567 39.81 192.576 40.0453C192.594 40.4608 192.736 40.8613 192.983 41.1957C193.306 41.6558 193.693 42.0675 194.131 42.4185Z" fill="black"/>
<path d="M78.4711 66.1594C78.0767 65.6895 77.5875 65.3086 77.0357 65.0416C76.4838 64.7747 75.8817 64.6277 75.2691 64.6105C74.1475 64.6105 72.7545 64.9909 72.7545 66.4221C72.7545 67.6268 73.8218 68.0072 75.5223 68.5417C77.9645 69.3297 81.1213 70.3533 81.1213 73.9764C81.1213 78.125 77.7927 79.9909 74.2289 79.9909C71.7283 80.0477 69.3065 79.1134 67.4902 77.3913L70.3395 74.4837C70.8168 75.0586 71.41 75.5261 72.0803 75.8554C72.7505 76.1848 73.4827 76.3686 74.2289 76.3949C75.5495 76.3949 76.7253 75.8877 76.7253 74.4293C76.7253 72.971 75.3505 72.6177 72.9806 71.8569C70.6108 71.096 68.3767 69.9547 68.3767 66.6938C68.3767 62.6902 71.9947 61.0326 75.3505 61.0326C77.5183 61.0407 79.6112 61.8282 81.2479 63.2518L78.4711 66.1594Z" fill="black"/>
<path d="M92.5634 79.9909C87.0187 79.9909 82.876 76.1232 82.876 70.471C82.876 64.683 87.1453 60.9873 92.6448 60.9873C95.1593 60.9873 97.8819 61.8931 99.3834 63.6413L96.4257 66.5942C95.9887 66.06 95.4356 65.6328 94.8085 65.3455C94.1814 65.0582 93.497 64.9183 92.8076 64.9366C89.7866 64.9366 87.6247 67.2826 87.6247 70.471C87.6247 73.6594 89.7323 75.9964 92.7353 75.9964C93.4695 76.0199 94.1987 75.8678 94.8625 75.5528C95.5263 75.2377 96.1056 74.7688 96.5523 74.1848L99.5734 77.038C98.6994 78.0203 97.6194 78.7968 96.4106 79.312C95.2019 79.8272 93.8943 80.0683 92.5815 80.0181" fill="black"/>
<path d="M112.734 79.5109V71.9746H105.715V79.5109H101.364V61.4764H105.715V68.3062H112.734V61.4764H117.085V79.5109H112.734Z" fill="black"/>
<path d="M129.685 79.9909C124.068 79.9909 119.889 76.1232 119.889 70.4167C119.889 64.7101 124.068 60.9873 129.685 60.9873C135.302 60.9873 139.508 64.6105 139.508 70.4167C139.508 76.2228 135.329 79.9909 129.685 79.9909ZM129.685 64.9185C126.637 64.9185 124.547 67.2554 124.547 70.4167C124.547 73.5779 126.655 76.0236 129.685 76.0236C132.715 76.0236 134.85 73.6775 134.85 70.4167C134.85 67.1558 132.742 64.9185 129.685 64.9185Z" fill="black"/>
<path d="M142.321 79.5109V61.4764H146.69V75.7156H153.664V79.5109H142.321Z" fill="black"/>
<path d="M168.904 79.5109L167.502 75.9692H160.538L159.217 79.5109H154.486L162.039 61.4764H166.263L173.744 79.5109H168.904ZM164.074 66.2862L161.786 72.4819H166.309L164.074 66.2862Z" fill="black"/>
<path d="M185.032 79.5109L181.143 72.355H179.659V79.5109H175.435V61.4764H182.3C185.765 61.4764 189.193 62.7989 189.193 66.9112C189.216 68.0268 188.859 69.1169 188.179 70.0013C187.5 70.8858 186.54 71.5116 185.457 71.7754L190.161 79.4927L185.032 79.5109ZM181.948 65.0181H179.632V69.221H181.694C183.096 69.221 184.851 68.8678 184.851 67.029C184.851 65.3533 183.25 65.0181 181.948 65.0181Z" fill="black"/>
<path d="M201.793 66.1594C201.398 65.6895 200.909 65.3086 200.357 65.0416C199.805 64.7747 199.203 64.6277 198.591 64.6105C197.469 64.6105 196.076 64.9909 196.076 66.4221C196.076 67.6268 197.143 68.0072 198.844 68.5417C201.286 69.3297 204.443 70.3533 204.443 73.9764C204.443 78.125 201.105 79.9909 197.55 79.9909C195.047 80.0462 192.623 79.1122 190.803 77.3913L193.652 74.4837C194.132 75.058 194.727 75.5249 195.398 75.8542C196.07 76.1834 196.803 76.3676 197.55 76.3949C198.871 76.3949 200.038 75.8877 200.038 74.4293C200.038 72.971 198.663 72.6177 196.302 71.8569C193.941 71.096 191.698 69.9547 191.698 66.6938C191.698 62.6902 195.316 61.0326 198.663 61.0326C200.834 61.0385 202.93 61.8262 204.569 63.2518L201.793 66.1594Z" fill="black"/>
<path d="M14.151 23.7771V74.7282L0.583313 67.9347V16.9836L14.151 23.7771Z" fill="black"/>
<path d="M31.1107 15.2898V66.2318L17.543 59.4384V8.49634L31.1107 15.2898Z" fill="black"/>
<path d="M48.0703 6.79348V57.7446L34.5026 50.9511V0L48.0703 6.79348Z" fill="black"/>
<path d="M207.898 61.5218H206.903V64.1939H206.55V61.5218H205.555V61.1866H207.898V61.5218Z" fill="black"/>
<path d="M208.314 61.1866H208.848L209.861 63.5417H209.87L210.892 61.1866H211.417V64.1939H211.055V61.6758H211.046L209.969 64.1939H209.752L208.676 61.6758H208.667V64.1939H208.314V61.1866Z" fill="black"/>
</g>
<defs>
<clipPath id="clip0_40_3725">
<rect width="210.833" height="80" fill="white" transform="translate(0.583313)"/>
</clipPath>
</defs>
</svg>
