<?xml version="1.0" encoding="utf-8"?>
<!-- Generator: Adobe Illustrator 17.1.0, SVG Export Plug-In . SVG Version: 6.00 Build 0)  -->
<!DOCTYPE svg PUBLIC "-//W3C//DTD SVG 1.1//EN" "http://www.w3.org/Graphics/SVG/1.1/DTD/svg11.dtd">
<svg version="1.1" id="Layer_1" xmlns="http://www.w3.org/2000/svg" xmlns:xlink="http://www.w3.org/1999/xlink" x="0px" y="0px"
	 viewBox="0 0 161.9 153.5" enable-background="new 0 0 161.9 153.5" xml:space="preserve">
<path fill="#1D305F" d="M14.4,105.8h15.3c-0.4,5.2-4.7,5.7-6.5,5.7H7.9C8.3,106.4,12.5,105.8,14.4,105.8z"/>
<g>
	<g>
		<path fill="#1D305F" d="M63.2,149.2c-0.6-0.7-9.9-11.3-9.9-11.3h-2v15.4h2.4c0,0,0-10.3,0-11.3c0.6,0.7,9.8,11.3,9.8,11.3h2.1
			v-15.4h-2.4C63.2,137.9,63.2,148.3,63.2,149.2z M20.3,137.7c-4.7,0-8.3,3.4-8.3,7.9c0,4.5,3.5,7.9,8.2,7.9c5.5,0,8.3-4,8.3-7.9
			C28.6,141,25.1,137.7,20.3,137.7z M20.3,151.1c-3.2,0-5.7-2.4-5.7-5.6c0-3.2,2.4-5.6,5.7-5.6c3.3,0,5.7,2.3,5.7,5.6
			C26,148.8,23.6,151.1,20.3,151.1z M43.7,146.8c0,1.2-0.1,2.4-0.9,3.2c-0.4,0.4-1.4,1.2-3.4,1.2c-1.3,0-2.3-0.4-3.1-1.2
			c-0.7-0.7-0.8-1.3-0.8-3v-9.1h-2.5v9.6c0,4.5,3.5,6.1,6.5,6.1c4.4,0,6.9-2.3,6.9-6.3v-9.3h-2.5V146.8z M0,153.3h2.5c0,0,0-6.6,0-7
			c0.4,0,5.9,0,5.9,0V144c0,0-5.5,0-5.9,0v-3.8c0.4,0,5.9,0,5.9,0v-2.3H0V153.3z M159.5,137.9c0,0,0,10.4,0,11.3
			c-0.6-0.7-9.9-11.3-9.9-11.3h-2v15.4h2.4c0,0,0-10.3,0-11.3c0.6,0.7,9.8,11.3,9.8,11.3h2.1v-15.4H159.5z M119.2,153.3h2.5v-15.4
			h-2.5V153.3z M76.9,137.9h-6v15.4H77c5.3,0,8.2-4,8.2-7.7C85.1,141.9,82.6,137.9,76.9,137.9z M76.7,151c0,0-2.9,0-3.3,0v-10.8
			c0.3,0,3.1,0,3.1,0c4.4,0,5.9,2.8,5.9,5.4C82.5,147.6,81.3,151,76.7,151z M134.7,137.7c-4.7,0-8.3,3.4-8.3,7.9
			c0,4.5,3.5,7.9,8.2,7.9c5.5,0,8.3-4,8.3-7.9C143,141,139.5,137.7,134.7,137.7z M134.7,151.1c-3.2,0-5.7-2.4-5.7-5.6
			c0-3.2,2.4-5.6,5.7-5.6c3.3,0,5.7,2.3,5.7,5.6C140.4,148.8,138,151.1,134.7,151.1z M93.5,137.8l-6.6,15.5h2.6c0,0,1.8-4.2,1.9-4.4
			h6.2c0.1,0.2,2,4.4,2,4.4h2.6l-6.9-15.5H93.5z M92.4,146.5c0.2-0.4,1.7-4.1,2-4.8c0.3,0.7,1.9,4.3,2.1,4.8H92.4z M102.2,140.2
			c0,0,4.9,0,5.2,0c0,0.4,0,13.1,0,13.1h2.5c0,0,0-12.8,0-13.1c0.3,0,5.2,0,5.2,0v-2.3h-13V140.2z"/>
	</g>
</g>
<path fill="#1D305F" d="M0,126.5h6.2c0,0,0-31.5,0-32.3c0.9,0,26,0,26,0v-5.7H0V126.5z"/>
<path fill="#1D305F" d="M45.1,88.6h-6.2v37.9h25.7v-5.7c0,0-18.7,0-19.5,0C45.1,120,45.1,88.6,45.1,88.6z"/>
<path fill="#1D305F" d="M114.1,116.6c-1.5-1.7-24.4-27.9-24.4-27.9h-4.9v37.9h5.9c0,0,0-25.6,0-27.8c1.5,1.7,24.1,27.8,24.1,27.8
	h5.2V88.6h-5.9C114.1,88.6,114.1,114.4,114.1,116.6z"/>
<path fill="#1D305F" d="M156.1,88.6c0,0,0,25.8,0,27.9c-1.5-1.7-24.5-27.9-24.5-27.9h-4.9v37.9h5.9c0,0,0-25.6,0-27.8
	c1.5,1.7,24.1,27.8,24.1,27.8h5.2V88.6H156.1z"/>
<rect x="71" y="88.6" fill="#1D305F" width="6.2" height="37.9"/>
<path fill="#029D74" d="M83.6,64.9V24.7c6.4,0.5,7.1,5.8,7.1,8.1V73C84.3,72.5,83.6,67.2,83.6,64.9z"/>
<path fill="#029D74" d="M71,32.8V73c6.4-0.5,7.1-5.8,7.1-8.1V24.7C71.7,25.2,71,30.5,71,32.8z"/>
<path fill="#029D74" d="M102.6,38.6H113c-0.5,6.4-5.8,7.1-8.1,7.1H94.5C95,39.3,100.3,38.6,102.6,38.6z"/>
<path fill="#029D74" d="M59.1,38.6H48.6c0.5,6.4,5.8,7.1,8.1,7.1h10.5C66.7,39.3,61.4,38.6,59.1,38.6z"/>
<path fill="#029D74" d="M102.6,25.7h14.9c-0.5,6.4-5.8,7.1-8.1,7.1H94.5C95,26.5,100.3,25.7,102.6,25.7z"/>
<path fill="#029D74" d="M52.3,32.8h14.9c-0.5-6.4-5.8-7.1-8.1-7.1H44.2C44.7,32.1,50,32.8,52.3,32.8z"/>
<path fill="#1D305F" d="M91.7,12.9H113c-0.5,6.4-5.8,7.1-8.1,7.1H83.6C84.1,13.6,89.4,12.9,91.7,12.9z"/>
<path fill="#1D305F" d="M70,12.9H48.5c0.5,6.4,5.8,7.1,8.1,7.1h21.5C77.6,13.6,72.4,12.9,70,12.9z"/>
<path fill="#1D305F" d="M91.7,0H104c-0.5,6.4-5.8,7.1-8.1,7.1H83.6C84.1,0.7,89.4,0,91.7,0z"/>
<path fill="#1D305F" d="M65.8,7.1h12.3C77.6,0.7,72.3,0,70,0H57.7C58.2,6.4,63.5,7.1,65.8,7.1z"/>
</svg>
